<svg width="1200" height="800" viewBox="0 0 1200 800" fill="none" xmlns="http://www.w3.org/2000/svg">
  <rect width="1200" height="800" rx="32" fill="#1E1E23"/>
  <circle cx="922" cy="130" r="168" fill="#E8A849" fill-opacity="0.16"/>
  <circle cx="244" cy="622" r="184" fill="#E8A849" fill-opacity="0.12"/>
  <path d="M165 155C165 134.013 182.013 117 203 117H640C660.987 117 678 134.013 678 155V523C678 543.987 660.987 561 640 561H203C182.013 561 165 543.987 165 523V155Z" fill="#242428" stroke="#3A3A40" stroke-width="2"/>
  <rect x="217" y="178" width="170" height="20" rx="10" fill="#E8A849"/>
  <rect x="217" y="228" width="376" height="16" rx="8" fill="#6B6660"/>
  <rect x="217" y="264" width="325" height="16" rx="8" fill="#6B6660"/>
  <rect x="217" y="300" width="346" height="16" rx="8" fill="#6B6660"/>
  <rect x="217" y="376" width="238" height="14" rx="7" fill="#9A9590"/>
  <rect x="217" y="410" width="274" height="14" rx="7" fill="#9A9590"/>
  <rect x="217" y="444" width="210" height="14" rx="7" fill="#9A9590"/>
  <path d="M742 246C742 225.013 759.013 208 780 208H1010C1030.99 208 1048 225.013 1048 246V528C1048 548.987 1030.99 566 1010 566H780C759.013 566 742 548.987 742 528V246Z" fill="#242428" stroke="#3A3A40" stroke-width="2"/>
  <circle cx="816" cy="288" r="32" fill="#E8A849"/>
  <path d="M798 288L811 301L836 275" stroke="#1A1A1E" stroke-width="8" stroke-linecap="round" stroke-linejoin="round"/>
  <rect x="790" y="356" width="208" height="16" rx="8" fill="#9A9590"/>
  <rect x="790" y="392" width="174" height="16" rx="8" fill="#6B6660"/>
  <rect x="790" y="462" width="72" height="28" rx="14" fill="#E8A849"/>
  <rect x="876" y="462" width="90" height="28" rx="14" fill="#3A3A40"/>
</svg>
